<mxfile host="Electron" agent="Mozilla/5.0 (X11; Linux x86_64) AppleWebKit/537.36 (KHTML, like Gecko) draw.io/26.0.9 Chrome/128.0.6613.186 Electron/32.2.5 Safari/537.36" version="26.0.9">
  <diagram id="prtHgNgQTEPvFCAcTncT" name="Page-1">
    <mxGraphModel dx="1430" dy="861" grid="1" gridSize="10" guides="1" tooltips="1" connect="1" arrows="1" fold="1" page="1" pageScale="1" pageWidth="827" pageHeight="1169" math="0" shadow="0">
      <root>
        <mxCell id="0" />
        <mxCell id="1" parent="0" />
        <mxCell id="4_8H7Ep0n1TzVMVkqlZd-1" value="OLD" style="rounded=0;whiteSpace=wrap;html=1;fillColor=#d5e8d4;strokeColor=#82b366;" vertex="1" parent="1">
          <mxGeometry x="280" y="170" width="120" height="60" as="geometry" />
        </mxCell>
        <mxCell id="4_8H7Ep0n1TzVMVkqlZd-4" value="start deploy" style="shape=step;perimeter=stepPerimeter;whiteSpace=wrap;html=1;fixedSize=1;" vertex="1" parent="1">
          <mxGeometry x="130" y="350" width="120" height="80" as="geometry" />
        </mxCell>
        <mxCell id="4_8H7Ep0n1TzVMVkqlZd-5" value="Data" style="shape=cylinder3;whiteSpace=wrap;html=1;boundedLbl=1;backgroundOutline=1;size=15;" vertex="1" parent="1">
          <mxGeometry x="310" y="50" width="60" height="80" as="geometry" />
        </mxCell>
        <mxCell id="4_8H7Ep0n1TzVMVkqlZd-7" value="" style="endArrow=classic;startArrow=classic;html=1;rounded=0;" edge="1" parent="1" source="4_8H7Ep0n1TzVMVkqlZd-1" target="4_8H7Ep0n1TzVMVkqlZd-5">
          <mxGeometry width="50" height="50" relative="1" as="geometry">
            <mxPoint x="560" y="440" as="sourcePoint" />
            <mxPoint x="610" y="390" as="targetPoint" />
          </mxGeometry>
        </mxCell>
        <mxCell id="4_8H7Ep0n1TzVMVkqlZd-9" value="OLD" style="rounded=0;whiteSpace=wrap;html=1;fillColor=#d5e8d4;strokeColor=#82b366;" vertex="1" parent="1">
          <mxGeometry x="180" y="600" width="120" height="60" as="geometry" />
        </mxCell>
        <mxCell id="4_8H7Ep0n1TzVMVkqlZd-10" value="Data" style="shape=cylinder3;whiteSpace=wrap;html=1;boundedLbl=1;backgroundOutline=1;size=15;" vertex="1" parent="1">
          <mxGeometry x="210" y="480" width="60" height="80" as="geometry" />
        </mxCell>
        <mxCell id="4_8H7Ep0n1TzVMVkqlZd-11" value="" style="endArrow=classic;startArrow=classic;html=1;rounded=0;" edge="1" parent="1" source="4_8H7Ep0n1TzVMVkqlZd-9" target="4_8H7Ep0n1TzVMVkqlZd-10">
          <mxGeometry width="50" height="50" relative="1" as="geometry">
            <mxPoint x="460" y="870" as="sourcePoint" />
            <mxPoint x="510" y="820" as="targetPoint" />
          </mxGeometry>
        </mxCell>
        <mxCell id="4_8H7Ep0n1TzVMVkqlZd-12" value="NEW" style="rounded=0;whiteSpace=wrap;html=1;" vertex="1" parent="1">
          <mxGeometry x="414" y="600" width="120" height="60" as="geometry" />
        </mxCell>
        <mxCell id="4_8H7Ep0n1TzVMVkqlZd-13" value="install dependencies" style="shape=step;perimeter=stepPerimeter;whiteSpace=wrap;html=1;fixedSize=1;" vertex="1" parent="1">
          <mxGeometry x="230" y="350" width="200" height="80" as="geometry" />
        </mxCell>
        <mxCell id="4_8H7Ep0n1TzVMVkqlZd-14" value="install postgres (no data)" style="shape=step;perimeter=stepPerimeter;whiteSpace=wrap;html=1;fixedSize=1;" vertex="1" parent="1">
          <mxGeometry x="410" y="350" width="200" height="80" as="geometry" />
        </mxCell>
        <mxCell id="4_8H7Ep0n1TzVMVkqlZd-15" value="ALB" style="rounded=0;whiteSpace=wrap;html=1;fillColor=#d5e8d4;strokeColor=#82b366;" vertex="1" parent="1">
          <mxGeometry x="295" y="270" width="90" height="50" as="geometry" />
        </mxCell>
        <mxCell id="4_8H7Ep0n1TzVMVkqlZd-16" value="" style="endArrow=classic;startArrow=classic;html=1;rounded=0;" edge="1" parent="1" source="4_8H7Ep0n1TzVMVkqlZd-15" target="4_8H7Ep0n1TzVMVkqlZd-1">
          <mxGeometry width="50" height="50" relative="1" as="geometry">
            <mxPoint x="350" y="180" as="sourcePoint" />
            <mxPoint x="350" y="140" as="targetPoint" />
          </mxGeometry>
        </mxCell>
        <mxCell id="4_8H7Ep0n1TzVMVkqlZd-17" value="ALB" style="rounded=0;whiteSpace=wrap;html=1;fillColor=#d5e8d4;strokeColor=#82b366;" vertex="1" parent="1">
          <mxGeometry x="195" y="700" width="90" height="50" as="geometry" />
        </mxCell>
        <mxCell id="4_8H7Ep0n1TzVMVkqlZd-18" value="" style="endArrow=classic;startArrow=classic;html=1;rounded=0;" edge="1" parent="1" source="4_8H7Ep0n1TzVMVkqlZd-17" target="4_8H7Ep0n1TzVMVkqlZd-9">
          <mxGeometry width="50" height="50" relative="1" as="geometry">
            <mxPoint x="250" y="610" as="sourcePoint" />
            <mxPoint x="240" y="660" as="targetPoint" />
          </mxGeometry>
        </mxCell>
        <mxCell id="4_8H7Ep0n1TzVMVkqlZd-19" value="stop old" style="shape=step;perimeter=stepPerimeter;whiteSpace=wrap;html=1;fixedSize=1;" vertex="1" parent="1">
          <mxGeometry x="130" y="800" width="120" height="80" as="geometry" />
        </mxCell>
        <mxCell id="4_8H7Ep0n1TzVMVkqlZd-20" value="reattach volume to new" style="shape=step;perimeter=stepPerimeter;whiteSpace=wrap;html=1;fixedSize=1;" vertex="1" parent="1">
          <mxGeometry x="230" y="800" width="200" height="80" as="geometry" />
        </mxCell>
        <mxCell id="4_8H7Ep0n1TzVMVkqlZd-21" value="configure postgres" style="shape=step;perimeter=stepPerimeter;whiteSpace=wrap;html=1;fixedSize=1;" vertex="1" parent="1">
          <mxGeometry x="410" y="800" width="180" height="80" as="geometry" />
        </mxCell>
        <mxCell id="4_8H7Ep0n1TzVMVkqlZd-22" value="test postgres" style="shape=step;perimeter=stepPerimeter;whiteSpace=wrap;html=1;fixedSize=1;" vertex="1" parent="1">
          <mxGeometry x="570" y="800" width="160" height="80" as="geometry" />
        </mxCell>
        <mxCell id="4_8H7Ep0n1TzVMVkqlZd-23" value="OLD" style="rounded=0;whiteSpace=wrap;html=1;" vertex="1" parent="1">
          <mxGeometry x="180" y="1030" width="120" height="60" as="geometry" />
        </mxCell>
        <mxCell id="4_8H7Ep0n1TzVMVkqlZd-24" value="Data" style="shape=cylinder3;whiteSpace=wrap;html=1;boundedLbl=1;backgroundOutline=1;size=15;" vertex="1" parent="1">
          <mxGeometry x="444" y="910" width="60" height="80" as="geometry" />
        </mxCell>
        <mxCell id="4_8H7Ep0n1TzVMVkqlZd-25" value="" style="endArrow=classic;startArrow=classic;html=1;rounded=0;" edge="1" parent="1" source="4_8H7Ep0n1TzVMVkqlZd-26" target="4_8H7Ep0n1TzVMVkqlZd-24">
          <mxGeometry width="50" height="50" relative="1" as="geometry">
            <mxPoint x="460" y="1300" as="sourcePoint" />
            <mxPoint x="510" y="1250" as="targetPoint" />
          </mxGeometry>
        </mxCell>
        <mxCell id="4_8H7Ep0n1TzVMVkqlZd-26" value="NEW" style="rounded=0;whiteSpace=wrap;html=1;fillColor=#d5e8d4;strokeColor=#82b366;" vertex="1" parent="1">
          <mxGeometry x="414" y="1030" width="120" height="60" as="geometry" />
        </mxCell>
        <mxCell id="4_8H7Ep0n1TzVMVkqlZd-27" value="ALB" style="rounded=0;whiteSpace=wrap;html=1;fillColor=#d5e8d4;strokeColor=#82b366;" vertex="1" parent="1">
          <mxGeometry x="430" y="1130" width="90" height="50" as="geometry" />
        </mxCell>
        <mxCell id="4_8H7Ep0n1TzVMVkqlZd-28" value="" style="endArrow=classic;startArrow=classic;html=1;rounded=0;" edge="1" parent="1" source="4_8H7Ep0n1TzVMVkqlZd-27" target="4_8H7Ep0n1TzVMVkqlZd-26">
          <mxGeometry width="50" height="50" relative="1" as="geometry">
            <mxPoint x="250" y="1040" as="sourcePoint" />
            <mxPoint x="240" y="1090" as="targetPoint" />
          </mxGeometry>
        </mxCell>
        <mxCell id="4_8H7Ep0n1TzVMVkqlZd-29" value="" style="endArrow=none;dashed=1;html=1;dashPattern=1 3;strokeWidth=2;rounded=0;" edge="1" parent="1" source="4_8H7Ep0n1TzVMVkqlZd-30">
          <mxGeometry width="50" height="50" relative="1" as="geometry">
            <mxPoint x="590" y="760" as="sourcePoint" />
            <mxPoint x="590" y="450" as="targetPoint" />
          </mxGeometry>
        </mxCell>
        <mxCell id="4_8H7Ep0n1TzVMVkqlZd-31" value="" style="endArrow=none;dashed=1;html=1;dashPattern=1 3;strokeWidth=2;rounded=0;" edge="1" parent="1" target="4_8H7Ep0n1TzVMVkqlZd-30">
          <mxGeometry width="50" height="50" relative="1" as="geometry">
            <mxPoint x="590" y="760" as="sourcePoint" />
            <mxPoint x="590" y="450" as="targetPoint" />
          </mxGeometry>
        </mxCell>
        <mxCell id="4_8H7Ep0n1TzVMVkqlZd-30" value="fail" style="shape=step;perimeter=stepPerimeter;whiteSpace=wrap;html=1;fixedSize=1;fillColor=#f8cecc;strokeColor=#b85450;" vertex="1" parent="1">
          <mxGeometry x="534" y="470" width="120" height="80" as="geometry" />
        </mxCell>
        <mxCell id="4_8H7Ep0n1TzVMVkqlZd-32" value="remove new" style="shape=step;perimeter=stepPerimeter;whiteSpace=wrap;html=1;fixedSize=1;fillColor=#e1d5e7;strokeColor=#9673a6;" vertex="1" parent="1">
          <mxGeometry x="637" y="550" width="190" height="80" as="geometry" />
        </mxCell>
        <mxCell id="4_8H7Ep0n1TzVMVkqlZd-41" value="" style="endArrow=none;dashed=1;html=1;dashPattern=1 3;strokeWidth=2;rounded=0;" edge="1" parent="1" source="4_8H7Ep0n1TzVMVkqlZd-43">
          <mxGeometry width="50" height="50" relative="1" as="geometry">
            <mxPoint x="590" y="1210" as="sourcePoint" />
            <mxPoint x="590" y="900" as="targetPoint" />
          </mxGeometry>
        </mxCell>
        <mxCell id="4_8H7Ep0n1TzVMVkqlZd-42" value="" style="endArrow=none;dashed=1;html=1;dashPattern=1 3;strokeWidth=2;rounded=0;" edge="1" parent="1" target="4_8H7Ep0n1TzVMVkqlZd-43">
          <mxGeometry width="50" height="50" relative="1" as="geometry">
            <mxPoint x="590" y="1210" as="sourcePoint" />
            <mxPoint x="590" y="900" as="targetPoint" />
          </mxGeometry>
        </mxCell>
        <mxCell id="4_8H7Ep0n1TzVMVkqlZd-43" value="fail" style="shape=step;perimeter=stepPerimeter;whiteSpace=wrap;html=1;fixedSize=1;fillColor=#f8cecc;strokeColor=#b85450;" vertex="1" parent="1">
          <mxGeometry x="534" y="920" width="120" height="80" as="geometry" />
        </mxCell>
        <mxCell id="4_8H7Ep0n1TzVMVkqlZd-44" value="remove new" style="shape=step;perimeter=stepPerimeter;whiteSpace=wrap;html=1;fixedSize=1;fillColor=#e1d5e7;strokeColor=#9673a6;" vertex="1" parent="1">
          <mxGeometry x="1330" y="1000" width="190" height="80" as="geometry" />
        </mxCell>
        <mxCell id="4_8H7Ep0n1TzVMVkqlZd-45" value="reattach volume" style="shape=step;perimeter=stepPerimeter;whiteSpace=wrap;html=1;fixedSize=1;fillColor=#e1d5e7;strokeColor=#9673a6;" vertex="1" parent="1">
          <mxGeometry x="630" y="1000" width="190" height="80" as="geometry" />
        </mxCell>
        <mxCell id="4_8H7Ep0n1TzVMVkqlZd-46" value="start old" style="shape=step;perimeter=stepPerimeter;whiteSpace=wrap;html=1;fixedSize=1;fillColor=#e1d5e7;strokeColor=#9673a6;" vertex="1" parent="1">
          <mxGeometry x="800" y="1000" width="190" height="80" as="geometry" />
        </mxCell>
        <mxCell id="4_8H7Ep0n1TzVMVkqlZd-47" value="reattach alb to new" style="shape=step;perimeter=stepPerimeter;whiteSpace=wrap;html=1;fixedSize=1;" vertex="1" parent="1">
          <mxGeometry x="710" y="800" width="200" height="80" as="geometry" />
        </mxCell>
        <mxCell id="4_8H7Ep0n1TzVMVkqlZd-48" value="reattach alb to old" style="shape=step;perimeter=stepPerimeter;whiteSpace=wrap;html=1;fixedSize=1;fillColor=#e1d5e7;strokeColor=#9673a6;" vertex="1" parent="1">
          <mxGeometry x="970" y="1000" width="200" height="80" as="geometry" />
        </mxCell>
        <mxCell id="4_8H7Ep0n1TzVMVkqlZd-49" value="start postgress on old" style="shape=step;perimeter=stepPerimeter;whiteSpace=wrap;html=1;fixedSize=1;fillColor=#e1d5e7;strokeColor=#9673a6;" vertex="1" parent="1">
          <mxGeometry x="1150" y="1000" width="200" height="80" as="geometry" />
        </mxCell>
      </root>
    </mxGraphModel>
  </diagram>
</mxfile>
